<svg width="543" height="158" viewBox="0 0 543 158" fill="none" xmlns="http://www.w3.org/2000/svg">
<path d="M105.03 136.879L73.7807 115.19C71.8169 113.826 71.9557 111.829 74.0894 110.752L106.323 94.4627C108.456 93.3849 110.135 94.4564 110.053 96.8455L108.748 135.014C108.667 137.403 106.994 138.243 105.03 136.879ZM114.706 83.0711L136.819 51.9364C138.204 49.9864 137.382 48.306 134.995 48.1978L96.9938 46.4834C94.6056 46.3751 93.5055 48.0473 94.5474 50.1986L110.295 82.7039C111.337 84.8556 113.322 85.0209 114.706 83.0711ZM114.796 134.681L140.71 105.477C142.296 103.688 141.742 101.6 139.478 100.834L117.596 93.4422C115.332 92.6764 113.413 94.0045 113.331 96.3936L112.06 133.588C111.979 135.977 113.209 136.469 114.796 134.681ZM62.2265 144.318L101.083 141.436C103.467 141.258 103.811 140 101.847 138.636L71.4552 117.546C69.4915 116.181 67.2593 116.92 66.4945 119.184L59.2836 140.524C58.5188 142.788 59.8427 144.496 62.2265 144.318ZM111.812 17.5871L137.22 40.1287C139.008 41.7136 140.325 41.0623 140.148 38.6795L139.457 29.365C139.279 26.9822 137.282 24.4065 135.017 23.6425L112.679 16.0933C110.414 15.3297 110.024 16.0021 111.812 17.5871ZM100.831 17.5532L93.6222 38.8918C92.8575 41.1557 94.1845 43.0951 96.5725 43.2033L133.528 44.8689C135.916 44.977 136.407 43.7653 134.619 42.1806L105.472 16.3204C103.685 14.7354 101.596 15.2893 100.831 17.5532ZM107.009 10.7403L125.365 16.942C127.63 17.7059 127.855 17.2477 125.866 15.9215L108.938 4.64224C107.257 3.522 105.352 4.17117 104.706 6.08511C104.059 7.99881 105.096 10.093 107.009 10.7403ZM68.1558 104.085L75.0568 83.6567C75.8217 81.3927 74.5954 78.9146 72.3315 78.1485L52.3816 71.4077C50.1177 70.6419 49.1183 71.7747 50.1601 73.9263L64.8703 104.291C65.912 106.442 67.391 106.349 68.1558 104.085ZM85.7845 51.9066C86.5492 49.6427 85.4301 48.673 83.2968 49.7509L53.1868 64.9681C51.0533 66.046 51.1606 67.5547 53.4244 68.3206L73.3754 75.0593C75.6393 75.8252 78.1175 74.599 78.8824 72.335L85.7845 51.9066ZM73.7306 107.28L103.841 92.063C105.974 90.9851 105.867 89.4766 103.602 88.7127L83.6531 81.972C81.3882 81.2081 78.91 82.4345 78.1451 84.6985L71.243 105.125C70.4782 107.389 71.5973 108.358 73.7306 107.28ZM43.6983 60.6377L44.9682 23.4262C45.0499 21.0371 43.8191 20.5448 42.2333 22.3335L16.316 51.5565C14.7299 53.3432 15.2846 55.4331 17.5496 56.1968L39.4324 63.5911C41.6974 64.355 43.6166 63.0268 43.6983 60.6377ZM48.277 22.0174L46.9753 60.1858C46.8937 62.5749 48.5718 63.6463 50.7054 62.5684L82.9391 46.2776C85.0727 45.1997 85.2116 43.2033 83.2478 41.8388L51.9953 20.1524C50.0317 18.7881 48.3587 19.6283 48.277 22.0174ZM143.649 41.7858C143.826 44.1686 145.434 47.417 147.221 49.0041L151.305 52.6301C153.093 54.2173 153.687 53.7631 152.626 51.6224L144.852 35.9298C143.791 33.789 143.069 33.9863 143.246 36.369L143.649 41.7858ZM22.0318 108.838L60.0347 110.548C62.4226 110.656 63.523 108.984 62.4811 106.833L46.7325 74.3274C45.6907 72.1758 43.7057 72.0102 42.3212 73.9602L20.2072 105.099C18.8228 107.049 19.6438 108.729 22.0318 108.838ZM94.7998 12.7135L55.9429 15.5948C53.5592 15.7731 53.2155 17.0313 55.1792 18.3955L85.5733 39.4858C87.537 40.8502 89.7692 40.1117 90.534 37.8478L97.7427 16.507C98.5075 14.2433 97.1838 12.5351 94.7998 12.7135ZM106.868 83.1072L92.1582 52.7426C91.1165 50.591 89.6375 50.6845 88.8727 52.9484L81.9695 73.3788C81.2048 75.6427 82.4309 78.1209 84.6949 78.887L104.646 85.6256C106.911 86.3917 107.91 85.2586 106.868 83.1072ZM78.5949 1.13919L96.9629 7.34549C98.8769 7.99252 100.972 6.95504 101.619 5.0411C102.265 3.12722 101.145 1.45535 99.1293 1.32583L78.8145 0.0274314C76.4285 -0.125278 76.3299 0.375271 78.5949 1.13919ZM138.589 55.0766L117.038 85.4198C115.653 87.3698 116.374 89.5892 118.639 90.3551L140.519 97.7474C142.784 98.5111 144.492 97.1871 144.314 94.8045L141.427 55.8659C141.249 53.4831 139.973 53.1266 138.589 55.0766ZM50.0169 146.293L31.6444 140.087C29.3805 139.321 29.1556 139.78 31.1449 141.103L48.0882 152.391C49.7685 153.512 51.674 152.862 52.321 150.948C52.9672 149.035 51.9306 146.941 50.0169 146.293ZM101.909 144.642L68.0369 147.157C65.6532 147.333 65.5555 148.103 67.8205 148.869L90.1564 156.414C92.4203 157.18 95.5711 156.344 97.1571 154.555L103.358 147.573C104.944 145.784 104.293 144.466 101.909 144.642ZM78.4189 155.89L60.0623 149.688C58.1497 149.041 56.0544 150.079 55.4082 151.992C54.7611 153.904 55.8803 155.576 57.8962 155.705L78.1982 157.004C80.5839 157.157 80.6825 156.656 78.4189 155.89ZM56.1954 139.48L63.4063 118.14C64.1711 115.876 62.844 113.936 60.456 113.828L23.5406 112.165C21.1523 112.056 20.6613 113.268 22.4477 114.855L51.5563 140.711C53.3428 142.298 55.4306 141.744 56.1954 139.48ZM120.689 143.244L115.242 143.652C112.858 143.828 109.611 145.436 108.024 147.225L104.419 151.286C102.832 153.074 103.287 153.668 105.43 152.61L121.127 144.848C123.27 143.79 123.072 143.068 120.689 143.244ZM155.886 78.6132L149.686 96.9666C149.04 98.8803 150.076 100.975 151.989 101.622C153.902 102.269 155.572 101.149 155.702 99.1327L157 78.834C157.152 76.449 156.651 76.3493 155.886 78.6132ZM139.442 111.815L116.896 137.225C115.31 139.013 115.962 140.329 118.346 140.153L127.663 139.457C130.047 139.281 132.622 137.282 133.387 135.018L140.934 112.68C141.699 110.416 141.028 110.026 139.442 111.815ZM144.639 55.1189L147.153 88.9909C147.33 91.3736 148.101 91.4712 148.866 89.2072L156.41 66.8758C157.175 64.6118 156.339 61.461 154.552 59.8738L147.567 53.6719C145.779 52.0847 144.462 52.7364 144.639 55.1189ZM150.946 104.709C149.032 104.062 146.937 105.099 146.291 107.013L140.09 125.364C139.325 127.628 139.783 127.853 141.11 125.865L152.389 108.942C153.509 107.259 152.86 105.356 150.946 104.709ZM36.3209 13.7955L41.7696 13.3925C44.1535 13.2163 47.3997 11.6081 48.9858 9.8193L52.6011 5.73922C54.1872 3.95065 53.7311 3.35427 51.589 4.41299L35.8816 12.1892C33.7398 13.248 33.937 13.9717 36.3209 13.7955ZM17.5857 45.2145L40.104 19.8213C41.6901 18.0327 41.0376 16.7152 38.6537 16.8911L29.3647 17.5786C26.9808 17.7548 24.4051 19.7513 23.6403 22.0152L16.093 44.3489C15.3282 46.6128 15.9998 47.0033 17.5857 45.2145ZM1.14103 78.4201L7.3419 60.067C7.98801 58.153 6.95145 56.059 5.03861 55.4118C3.12602 54.7646 1.45499 55.885 1.32548 57.9006L0.0270772 78.1995C-0.124534 80.5843 0.376015 80.684 1.14103 78.4201ZM6.08152 52.3225C7.9954 52.9697 10.0895 51.932 10.7356 50.0205L16.9364 31.6693C17.7015 29.4054 17.243 29.1805 15.9181 31.1685L4.63865 48.0918C3.51945 49.7721 4.16758 51.6754 6.08152 52.3225ZM45.2141 139.444L19.8009 116.898C18.0132 115.313 16.6935 115.965 16.8687 118.35L17.5539 127.66C17.7289 130.043 19.7245 132.619 21.9895 133.382L44.3475 140.938C46.6125 141.702 47.0019 141.029 45.2141 139.444ZM55.1144 12.3909L88.9894 9.87667C91.3733 9.70047 91.4709 8.9302 89.2069 8.16433L66.8498 0.610805C64.5861 -0.155064 61.4372 0.682949 59.8522 2.47171L53.662 9.45864C52.077 11.2474 52.7305 12.5671 55.1144 12.3909ZM18.4313 101.97L39.9904 71.6135C41.3748 69.6637 40.6546 67.4444 38.3896 66.6782L16.5058 59.2861C14.2419 58.5202 12.5337 59.8441 12.7099 62.2268L15.5944 101.18C15.7706 103.563 17.0469 103.92 18.4313 101.97ZM12.3788 101.887L9.87199 68.0405C9.69596 65.6577 8.92576 65.5602 8.16074 67.8241L0.614785 90.1578C-0.150169 92.4217 0.686928 95.5704 2.4755 97.1576L9.44767 103.336C11.2364 104.923 12.555 104.27 12.3788 101.887ZM13.3719 115.224C13.1957 112.842 11.5897 109.593 9.80198 108.008L5.71018 104.38C3.92271 102.795 3.32743 103.249 4.38725 105.392L12.1624 121.102C13.2223 123.245 13.9468 123.047 13.7709 120.664L13.3719 115.224Z" fill="#25292E"/>
<path d="M242.864 69H235.818C235.402 66.9735 234.672 65.1932 233.631 63.6591C232.608 62.125 231.358 60.8371 229.881 59.7955C228.422 58.7348 226.803 57.9394 225.023 57.4091C223.242 56.8788 221.386 56.6136 219.455 56.6136C215.932 56.6136 212.741 57.5038 209.881 59.2841C207.04 61.0644 204.777 63.6875 203.091 67.1534C201.424 70.6193 200.591 74.8712 200.591 79.9091C200.591 84.947 201.424 89.1989 203.091 92.6648C204.777 96.1307 207.04 98.7538 209.881 100.534C212.741 102.314 215.932 103.205 219.455 103.205C221.386 103.205 223.242 102.939 225.023 102.409C226.803 101.879 228.422 101.093 229.881 100.051C231.358 98.9905 232.608 97.6932 233.631 96.1591C234.672 94.6061 235.402 92.8258 235.818 90.8182H242.864C242.333 93.7917 241.367 96.4527 239.966 98.8011C238.564 101.15 236.822 103.148 234.739 104.795C232.655 106.424 230.316 107.665 227.722 108.517C225.146 109.369 222.39 109.795 219.455 109.795C214.492 109.795 210.08 108.583 206.216 106.159C202.352 103.735 199.313 100.288 197.097 95.8182C194.881 91.3485 193.773 86.0455 193.773 79.9091C193.773 73.7727 194.881 68.4697 197.097 64C199.313 59.5303 202.352 56.0833 206.216 53.6591C210.08 51.2348 214.492 50.0227 219.455 50.0227C222.39 50.0227 225.146 50.4489 227.722 51.3011C230.316 52.1534 232.655 53.4034 234.739 55.0511C236.822 56.6799 238.564 58.6686 239.966 61.017C241.367 63.3466 242.333 66.0076 242.864 69ZM266.18 110.023C263.415 110.023 260.906 109.502 258.652 108.46C256.398 107.4 254.608 105.875 253.283 103.886C251.957 101.879 251.294 99.4545 251.294 96.6136C251.294 94.1136 251.786 92.0871 252.771 90.5341C253.756 88.9621 255.072 87.7311 256.72 86.8409C258.368 85.9508 260.186 85.2879 262.175 84.8523C264.182 84.3977 266.199 84.0379 268.226 83.7727C270.877 83.4318 273.027 83.1761 274.675 83.0057C276.341 82.8163 277.554 82.5038 278.311 82.0682C279.088 81.6326 279.476 80.875 279.476 79.7955V79.5682C279.476 76.7652 278.709 74.5871 277.175 73.0341C275.66 71.4811 273.358 70.7045 270.271 70.7045C267.071 70.7045 264.561 71.4053 262.743 72.8068C260.925 74.2083 259.646 75.7045 258.908 77.2955L252.544 75.0227C253.68 72.3712 255.196 70.3068 257.089 68.8295C259.002 67.3333 261.086 66.2917 263.339 65.7045C265.612 65.0985 267.847 64.7955 270.044 64.7955C271.446 64.7955 273.055 64.9659 274.874 65.3068C276.711 65.6288 278.482 66.3011 280.186 67.3239C281.91 68.3466 283.339 69.8902 284.476 71.9545C285.612 74.0189 286.18 76.7841 286.18 80.25V109H279.476V103.091H279.135C278.68 104.038 277.923 105.051 276.862 106.131C275.802 107.21 274.391 108.129 272.629 108.886C270.868 109.644 268.718 110.023 266.18 110.023ZM267.203 104C269.855 104 272.089 103.479 273.908 102.438C275.745 101.396 277.127 100.051 278.055 98.4034C279.002 96.7557 279.476 95.0227 279.476 93.2045V87.0682C279.192 87.4091 278.567 87.7216 277.601 88.0057C276.654 88.2708 275.555 88.5076 274.305 88.7159C273.074 88.9053 271.872 89.0758 270.697 89.2273C269.542 89.3598 268.605 89.4735 267.885 89.5682C266.143 89.7955 264.514 90.1648 262.999 90.6761C261.502 91.1686 260.29 91.9167 259.362 92.9205C258.453 93.9053 257.999 95.25 257.999 96.9545C257.999 99.2841 258.86 101.045 260.584 102.239C262.326 103.413 264.533 104 267.203 104ZM329.327 75.1364L323.304 76.8409C322.925 75.8371 322.366 74.8617 321.628 73.9148C320.908 72.9489 319.923 72.1534 318.673 71.5284C317.423 70.9034 315.823 70.5909 313.872 70.5909C311.202 70.5909 308.976 71.2064 307.196 72.4375C305.435 73.6496 304.554 75.1932 304.554 77.0682C304.554 78.7348 305.16 80.0511 306.372 81.017C307.584 81.983 309.478 82.7879 312.054 83.4318L318.531 85.0227C322.433 85.9697 325.34 87.4186 327.253 89.3693C329.166 91.3011 330.122 93.7917 330.122 96.8409C330.122 99.3409 329.402 101.576 327.963 103.545C326.543 105.515 324.554 107.068 321.997 108.205C319.44 109.341 316.467 109.909 313.077 109.909C308.626 109.909 304.942 108.943 302.026 107.011C299.109 105.08 297.262 102.258 296.486 98.5455L302.849 96.9545C303.455 99.303 304.601 101.064 306.287 102.239C307.991 103.413 310.217 104 312.963 104C316.088 104 318.569 103.337 320.406 102.011C322.262 100.667 323.19 99.0568 323.19 97.1818C323.19 95.6667 322.66 94.3977 321.599 93.375C320.539 92.3333 318.91 91.5568 316.713 91.0455L309.44 89.3409C305.444 88.3939 302.509 86.9261 300.634 84.9375C298.777 82.9299 297.849 80.4205 297.849 77.4091C297.849 74.947 298.541 72.7689 299.923 70.875C301.325 68.9811 303.228 67.4943 305.634 66.4148C308.058 65.3352 310.804 64.7955 313.872 64.7955C318.19 64.7955 321.58 65.7424 324.043 67.6364C326.524 69.5303 328.285 72.0303 329.327 75.1364ZM358.51 109.909C354.305 109.909 350.679 108.981 347.629 107.125C344.599 105.25 342.26 102.636 340.612 99.2841C338.983 95.9129 338.169 91.9924 338.169 87.5227C338.169 83.053 338.983 79.1136 340.612 75.7045C342.26 72.2765 344.552 69.6061 347.487 67.6932C350.442 65.7614 353.889 64.7955 357.828 64.7955C360.101 64.7955 362.345 65.1742 364.561 65.9318C366.777 66.6894 368.794 67.9205 370.612 69.625C372.43 71.3106 373.879 73.5455 374.959 76.3295C376.038 79.1136 376.578 82.5417 376.578 86.6136V89.4545H342.942V83.6591H369.76C369.76 81.197 369.268 79 368.283 77.0682C367.317 75.1364 365.934 73.6117 364.135 72.4943C362.355 71.3769 360.252 70.8182 357.828 70.8182C355.158 70.8182 352.847 71.4811 350.896 72.8068C348.964 74.1136 347.478 75.8182 346.436 77.9205C345.394 80.0227 344.874 82.2765 344.874 84.6818V88.5455C344.874 91.8409 345.442 94.6345 346.578 96.9261C347.733 99.1989 349.334 100.932 351.379 102.125C353.425 103.299 355.802 103.886 358.51 103.886C360.271 103.886 361.862 103.64 363.283 103.148C364.722 102.636 365.963 101.879 367.004 100.875C368.046 99.8523 368.851 98.5833 369.419 97.0682L375.896 98.8864C375.214 101.083 374.069 103.015 372.459 104.682C370.849 106.33 368.86 107.617 366.493 108.545C364.125 109.455 361.464 109.909 358.51 109.909ZM427.459 69C426.834 67.0871 426.01 65.3731 424.987 63.858C423.983 62.3239 422.781 61.017 421.379 59.9375C419.997 58.858 418.425 58.0341 416.663 57.4659C414.902 56.8977 412.97 56.6136 410.868 56.6136C407.421 56.6136 404.286 57.5038 401.464 59.2841C398.643 61.0644 396.398 63.6875 394.732 67.1534C393.065 70.6193 392.232 74.8712 392.232 79.9091C392.232 84.947 393.074 89.1989 394.76 92.6648C396.446 96.1307 398.728 98.7538 401.607 100.534C404.485 102.314 407.724 103.205 411.322 103.205C414.656 103.205 417.591 102.494 420.129 101.074C422.686 99.6345 424.675 97.608 426.095 94.9943C427.535 92.3617 428.254 89.2652 428.254 85.7045L430.413 86.1591H412.913V79.9091H435.072V86.1591C435.072 90.9508 434.05 95.1174 432.004 98.6591C429.978 102.201 427.175 104.947 423.595 106.898C420.035 108.83 415.944 109.795 411.322 109.795C406.171 109.795 401.644 108.583 397.743 106.159C393.86 103.735 390.83 100.288 388.652 95.8182C386.493 91.3485 385.413 86.0455 385.413 79.9091C385.413 75.3068 386.029 71.1686 387.26 67.4943C388.51 63.8011 390.271 60.6572 392.544 58.0625C394.817 55.4678 397.506 53.4792 400.612 52.0966C403.718 50.714 407.137 50.0227 410.868 50.0227C413.936 50.0227 416.796 50.4867 419.447 51.4148C422.118 52.3239 424.495 53.6212 426.578 55.3068C428.68 56.9735 430.432 58.9716 431.834 61.3011C433.235 63.6117 434.201 66.178 434.732 69H427.459ZM447.139 109V50.8182H466.798C471.363 50.8182 475.094 51.642 477.991 53.2898C480.908 54.9186 483.067 57.125 484.469 59.9091C485.87 62.6932 486.571 65.7992 486.571 69.2273C486.571 72.6553 485.87 75.7708 484.469 78.5739C483.086 81.3769 480.946 83.6117 478.048 85.2784C475.151 86.9261 471.438 87.75 466.912 87.75H452.821V81.5H466.685C469.81 81.5 472.319 80.9602 474.213 79.8807C476.107 78.8011 477.48 77.3428 478.332 75.5057C479.204 73.6496 479.639 71.5568 479.639 69.2273C479.639 66.8977 479.204 64.8144 478.332 62.9773C477.48 61.1402 476.098 59.7008 474.185 58.6591C472.272 57.5985 469.734 57.0682 466.571 57.0682H454.185V109H447.139ZM494.739 57.0682V50.8182H538.375V57.0682H520.08V109H513.034V57.0682H494.739Z" fill="black"/>
</svg>
